<?xml version="1.0" ?><svg width="80px" height="100px" viewBox="-18.5 0 117 117" version="1.1" xmlns="http://www.w3.org/2000/svg" xmlns:xlink="http://www.w3.org/1999/xlink"><title/><desc/><defs/><g fill="none" fill-rule="evenodd" id="Page-1" stroke="none" stroke-width="1"><g fill-rule="nonzero" id="voice-recorder"><path d="M40.3,79.6 C55.6,79.6 68,67.1 68,51.8 L68,49.1 L68,28.2 C68,12.9 55.6,0.5 40.3,0.5 C25,0.5 12.6,12.9 12.6,28.2 L12.6,49.1 L12.6,51.8 C12.6,67.1 25,79.6 40.3,79.6 Z M20.8,28.2 C20.8,17.4 29.6,8.6 40.4,8.6 C51.2,8.6 60,17.4 60,28.2 L60,49.1 C60,59.9 51.2,68.7 40.4,68.7 C29.6,68.7 20.8,59.9 20.8,49.1 L20.8,28.2 Z" fill="#17AB13" id="Shape"/><path d="M80,51.8 C80,49.5 78.2,47.7 75.9,47.7 C73.6,47.7 71.8,49.5 71.8,51.8 C71.8,69.2 57.7,83.3 40.3,83.3 C22.9,83.3 8.8,69.2 8.8,51.8 C8.8,49.5 7,47.7 4.7,47.7 C2.4,47.7 0.6,49.5 0.6,51.8 C0.6,72.3 16.2,89.2 36.2,91.3 L36.2,108.4 L13.3,108.4 C11,108.4 9.2,110.2 9.2,112.5 C9.2,114.8 11,116.6 13.3,116.6 L65.6,116.6 C67.9,116.6 69.7,114.8 69.7,112.5 C69.7,110.2 67.9,108.4 65.6,108.4 L44.4,108.4 L44.4,91.3 C64.4,89.2 80,72.3 80,51.8 Z" fill="#4A4A4A" id="Shape"/></g></g></svg>