<?xml version="1.0" ?><svg width="117px" height="117px" viewBox="0 0 117 117" version="1.1" xmlns="http://www.w3.org/2000/svg" xmlns:xlink="http://www.w3.org/1999/xlink"><title/><desc/><defs/><g fill="none" fill-rule="evenodd" id="Page-1" stroke="none" stroke-width="1"><g fill-rule="nonzero" id="upload"><path d="M75.7,0.5 C55.9,0.5 39.3,14.5 35.6,33.4 C32.1,32 28.4,31.3 24.6,31.5 C11,32 0.3,43.6 0.3,57.6 C0.3,71.3 11.4,82.4 25.1,82.4 C27.4,82.4 29.2,80.6 29.2,78.3 C29.2,76 27.4,74.2 25.1,74.2 C16,74.2 8.5,66.8 8.5,57.6 C8.5,48.1 15.9,39.9 25,39.5 C29.2,39.3 33.1,40.6 36.4,43.1 C37.6,44 39.2,44.2 40.6,43.6 C42,43 42.9,41.6 43,40 C43.7,22.4 58,8.5 75.7,8.5 C93.8,8.5 108.5,23.2 108.5,41.3 C108.5,41.7 108.5,42.1 108.4,42.5 L108.4,43.2 C108.4,43.5 108.4,43.7 108.4,44 C108.1,60.7 94.4,74.2 77.6,74.2 C75.3,74.2 73.5,76 73.5,78.3 C73.5,80.6 75.3,82.4 77.6,82.4 C99.1,82.4 116.6,64.9 116.6,43.4 C116.6,43.3 116.6,43.2 116.6,43 C116.6,42.4 116.7,41.9 116.7,41.3 C116.7,18.8 98.3,0.5 75.7,0.5 Z" fill="#4A4A4A" id="Shape"/><path d="M56,69.5 C54.4,67.9 51.8,67.9 50.2,69.5 L23.7,96 C22.1,97.6 22.1,100.2 23.7,101.8 C25.3,103.4 27.9,103.4 29.5,101.8 L49,82.3 L49,112.6 C49,114.9 50.8,116.7 53.1,116.7 C55.4,116.7 57.2,114.9 57.2,112.6 L57.2,82.3 L76.6,101.7 C77.4,102.5 78.4,102.9 79.5,102.9 C80.5,102.9 81.6,102.5 82.4,101.7 C84,100.1 84,97.5 82.4,95.9 L56,69.5 Z" fill="#17AB13" id="Shape"/></g></g></svg>