<?xml version="1.0" ?><svg width="117px" height="117px" viewBox="0 -3 123 123" version="1.1" xmlns="http://www.w3.org/2000/svg" xmlns:xlink="http://www.w3.org/1999/xlink"><title/><desc/><defs/><g fill="none" fill-rule="evenodd" id="Page-1" stroke="none" stroke-width="1"><g fill-rule="nonzero" id="download"><path d="M58.5,101.1 C58.9,101.5 59.4,101.8 59.9,102 C59.9,102 59.9,102 60,102 C60.5,102.2 61,102.3 61.6,102.3 C62.2,102.3 62.7,102.2 63.2,102 C63.2,102 63.2,102 63.3,102 C63.8,101.8 64.3,101.5 64.7,101.1 L121.6,44.2 C123.3,42.5 123.3,39.8 121.6,38.1 C119.9,36.4 117.2,36.4 115.5,38.1 L65.8,87.6 L65.8,4.8 C65.8,2.4 63.9,0.5 61.5,0.5 C59.1,0.5 57.2,2.4 57.2,4.8 L57.2,87.7 L7.7,38.1 C6,36.4 3.3,36.4 1.6,38.1 C-0.1,39.8 -0.1,42.5 1.6,44.2 L58.5,101.1 Z" fill="#17AB13" id="Shape"/><path d="M4.6,116.6 L118.4,116.6 C120.8,116.6 122.7,114.7 122.7,112.3 C122.7,109.9 120.8,108 118.4,108 L4.6,108 C2.2,108 0.3,109.9 0.3,112.3 C0.3,114.6 2.2,116.6 4.6,116.6 Z" fill="#4A4A4A" id="Shape"/></g></g></svg>