<?xml version="1.0" ?><svg width="117px" height="117px" viewBox="0 -8.5 117 117" version="1.1" xmlns="http://www.w3.org/2000/svg" xmlns:xlink="http://www.w3.org/1999/xlink"><title/><desc/><defs/><g fill="none" fill-rule="evenodd" id="Page-1" stroke="none" stroke-width="1"><g fill-rule="nonzero" id="chat-bubble"><path d="M29,35.5 L88,35.5 C90.3,35.5 92.1,33.7 92.1,31.4 C92.1,29.1 90.3,27.3 88,27.3 L29,27.3 C26.7,27.3 24.9,29.1 24.9,31.4 C24.9,33.7 26.7,35.5 29,35.5 Z" fill="#17AB13" id="Shape"/><path d="M29,55.3 L88,55.3 C90.3,55.3 92.1,53.5 92.1,51.2 C92.1,48.9 90.3,47.1 88,47.1 L29,47.1 C26.7,47.1 24.9,48.9 24.9,51.2 C24.9,53.5 26.7,55.3 29,55.3 Z" fill="#17AB13" id="Shape"/><path d="M4.5,81.8 L17.7,81.8 L17.7,95.3 C17.7,96.9 18.6,98.3 20,99 C20.6,99.3 21.2,99.4 21.8,99.4 C22.7,99.4 23.6,99.1 24.3,98.6 L46.3,81.9 L112.5,81.9 C114.8,81.9 116.6,80.1 116.6,77.8 L116.6,4.9 C116.6,2.6 114.8,0.8 112.5,0.8 L4.5,0.8 C2.2,0.8 0.4,2.6 0.4,4.9 L0.4,77.7 C0.4,80 2.3,81.8 4.5,81.8 Z M8.6,9 L108.3,9 L108.3,73.6 L44.9,73.6 C44,73.6 43.1,73.9 42.4,74.4 L25.9,87 L25.9,77.7 C25.9,75.4 24.1,73.6 21.8,73.6 L8.6,73.6 L8.6,9 Z" fill="#4A4A4A" id="Shape"/></g></g></svg>